{"title":"This Ain't Star Trek XXX (Hustler Video)","uid":5616924,"size":4697322548,"categoryP":"porn","categoryS":"hd___movies","magnet":"?xt=urn:btih:4e12aaad09d15b488004c8ba9248cb66700c7898&amp;dn=This+Ain%5C%27t+Star+Trek+XXX+%28Hustler+Video%29&amp;tr=udp%3A%2F%2Ftracker.openbittorrent.com%3A80&amp;tr=udp%3A%2F%2Fopen.demonii.com%3A1337&amp;tr=udp%3A%2F%2Ftracker.coppersurfer.tk%3A6969&amp;tr=udp%3A%2F%2Fexodus.desync.com%3A6969","seeders":2,"leechers":0,"uploader":"nac30","files":-1,"time":1276101305,"description":"This Ain't Star Trek XXX\n\n-------------------------\n\nHuster Video\n\nstarring\nEvan Stone, Tony De Sergio, Cheyne Collins, Nick Manning, Jada Fire, Ero Sennin, Anthony Rosano, Codi Carmichael, Jenna Haze, Sasha Grey, Aurora Snow\n\n-------------------------\n\n\nStar Trek Porn Parody\n\nInternet Movie Database (IMDb): &lt;a href=&quot;\nhttp://www.imdb.com/title/tt1489257/&quot; rel=&quot;nofollow&quot; target=&quot;_NEW&quot;&gt;\nhttp://www.imdb.com/title/tt1489257/&lt;/a&gt;\n\n-------------------------\n\nGeneral\nComplete name                    : dp-tastxxx.x264.mkv\nFormat                           : Matroska\nFile size                        : 4.37 GiB\nDuration                         : 1h 59mn\nOverall bit rate                 : 5 233 Kbps\nEncoded date                     : UTC 2009-06-26 01:35:43\nWriting application              : mkvmerge v2.9.0 ('Moanin'')\n                                   built on May 22 2009 17:46:31\nWriting library                  : libebml v0.7.7 + libmatroska v0.8.1\n\nVideo\nID                               : 1\nFormat                           : AVC\nFormat/Info                      : Advanced Video Codec\nFormat profile                   : &lt;a class=&quot;__cf_email__&quot; href=&quot;/cdn-cgi/l/email-protection&quot; data-cfemail=&quot;82caebe5eac2ceb6acb3&quot;&gt;[email&amp;#160;protected]&lt;/a&gt;&lt;script cf-hash='f9e31' type=&quot;text/javascript&quot;&gt;\n/* &lt;![CDATA[ */!function(){try{var t=&quot;currentScript&quot;in document?document.currentScript:function(){for(var t=document.getElementsByTagName(&quot;script&quot;),e=t.length;e--;)if(t[e].getAttribute(&quot;cf-hash&quot;))return t[e]}();if(t&amp;&amp;t.previousSibling){var e,r,n,i,c=t.previousSibling,a=c.getAttribute(&quot;data-cfemail&quot;);if(a){for(e=&quot;&quot;,r=parseInt(a.substr(0,2),16),n=2;a.length-n;n+=2)i=parseInt(a.substr(n,2),16)^r,e+=String.fromCharCode(i);e=document.createTextNode(e),c.parentNode.replaceChild(e,c)}}}catch(u){}}();/* ]]&gt; */&lt;/script&gt;\nFormat settings, CABAC           : Yes\nFormat settings, ReFrames        : 5 frames\nMuxing mode                      : Container profile=&lt;a class=&quot;__cf_email__&quot; href=&quot;/cdn-cgi/l/email-protection&quot; data-cfemail=&quot;f1a49f9a9f9e869fb1c5dfc0&quot;&gt;[email&amp;#160;protected]&lt;/a&gt;&lt;script cf-hash='f9e31' type=&quot;text/javascript&quot;&gt;\n/* &lt;![CDATA[ */!function(){try{var t=&quot;currentScript&quot;in document?document.currentScript:function(){for(var t=document.getElementsByTagName(&quot;script&quot;),e=t.length;e--;)if(t[e].getAttribute(&quot;cf-hash&quot;))return t[e]}();if(t&amp;&amp;t.previousSibling){var e,r,n,i,c=t.previousSibling,a=c.getAttribute(&quot;data-cfemail&quot;);if(a){for(e=&quot;&quot;,r=parseInt(a.substr(0,2),16),n=2;a.length-n;n+=2)i=parseInt(a.substr(n,2),16)^r,e+=String.fromCharCode(i);e=document.createTextNode(e),c.parentNode.replaceChild(e,c)}}}catch(u){}}();/* ]]&gt; */&lt;/script&gt;\nCodec ID                         : V_MPEG4/ISO/AVC\nDuration                         : 1h 59mn\nBit rate                         : 4 905 Kbps\nNominal bit rate                 : 5 008 Kbps\nWidth                            : 1 280 pixels\nHeight                           : 720 pixels\nDisplay aspect ratio             : 16/9\nFrame rate                       : 23.976 fps\nResolution                       : 24 bits\nColorimetry                      : 4:2:0\nScan type                        : Progressive\nBits/(Pixel*Frame)               : 0.222\nStream size                      : 4.10 GiB (94%)\nWriting library                  : x264 core 67 r1171M 2c7cb4c\nLanguage                         : English\n\nAudio\nID                               : 2\nFormat                           : AC-3\nFormat/Info                      : Audio Coding 3\nCodec ID                         : A_AC3\nDuration                         : 1h 59mn\nBit rate mode                    : Constant\nBit rate                         : 224 Kbps\nChannel(s)                       : 2 channels\nChannel positions                : L R\nSampling rate                    : 48.0 KHz\nStream size                      : 192 MiB (4%)\nLanguage                         : English\n\n\n-------------------------\n\nRe-upload of &lt;a href=&quot;\nhttp://thepiratebay.se/torrent/5031213/&quot; rel=&quot;nofollow&quot; target=&quot;_NEW&quot;&gt;\nhttp://thepiratebay.se/torrent/5031213/&lt;/a&gt;\nand &lt;a href=&quot;\nhttp://thepiratebay.se/torrent/5088490/&quot; rel=&quot;nofollow&quot; target=&quot;_NEW&quot;&gt;\nhttp://thepiratebay.se/torrent/5088490/&lt;/a&gt;\n\nThe first one was the original one (in RAR files), the second one was my version (unrared but private).\n\nAs TPB does not have its own tracker anymore and private torrents don't use DHT and such decentralized stuff to help sharing, I decided to reupload the file as a public torrent (with DHT, peer exchange etc) with several open trackers added.\n\n--------------------------\n\nOriginally from CrocBits.com\n\nCover &lt;a href=&quot;\nhttp://bayimg.com/image/cadgbaaco.jpg&quot; rel=&quot;nofollow&quot; target=&quot;_NEW&quot;&gt;\nhttp://bayimg.com/image/cadgbaaco.jpg&lt;/a&gt;\n\n--------------------------\n\nIf people that already have this would switch then seeding will be faster. As it is seeding will be slow...","torrent":{"xt":"urn:btih:4e12aaad09d15b488004c8ba9248cb66700c7898","amp;dn":"This+Ain%5C%27t+Star+Trek+XXX+%28Hustler+Video%29","amp;tr":["udp%3A%2F%2Ftracker.openbittorrent.com%3A80","udp%3A%2F%2Fopen.demonii.com%3A1337","udp%3A%2F%2Ftracker.coppersurfer.tk%3A6969","udp%3A%2F%2Fexodus.desync.com%3A6969"],"infoHash":"4e12aaad09d15b488004c8ba9248cb66700c7898","infoHashBuffer":{"type":"Buffer","data":[78,18,170,173,9,209,91,72,128,4,200,186,146,72,203,102,112,12,120,152]},"announce":[],"urlList":[]}}